<svg width="12" height="20" viewBox="0 0 12 20" fill="none" xmlns="http://www.w3.org/2000/svg">
<path d="M0.962494 19.1125C0.712494 18.8625 0.587494 18.5665 0.587494 18.2245C0.587494 17.8832 0.712494 17.5875 0.962494 17.3375L8.28749 10.0125L0.937494 2.66251C0.70416 2.42918 0.587494 2.13751 0.587494 1.78751C0.587494 1.43751 0.712494 1.13751 0.962494 0.887512C1.21249 0.637512 1.50849 0.512512 1.85049 0.512512C2.19183 0.512512 2.48749 0.637512 2.73749 0.887512L11.1375 9.31251C11.2375 9.41251 11.3085 9.52085 11.3505 9.63751C11.3918 9.75418 11.4125 9.87918 11.4125 10.0125C11.4125 10.1458 11.3918 10.2708 11.3505 10.3875C11.3085 10.5042 11.2375 10.6125 11.1375 10.7125L2.71249 19.1375C2.47916 19.3708 2.19183 19.4875 1.85049 19.4875C1.50849 19.4875 1.21249 19.3625 0.962494 19.1125Z" fill="white"/>
</svg>
