<svg width="175" height="28" viewBox="0 0 175 28" fill="none" xmlns="http://www.w3.org/2000/svg">
<g clip-path="url(#clip0_6_3)">
<path d="M3.02492 7.3217C4.5718 6.00352 5.85246 5.49239 7.75738 5.49239C9.6623 5.49239 11.2734 6.13355 12.2282 7.29031C12.9856 8.19151 13.2793 9.28102 13.2793 11.0476V21.4181H10.2544V11.5273C10.2544 10.2091 10.0892 9.53659 9.59803 9.02098C9.07016 8.44259 8.21639 8.12426 7.16525 8.12426C4.53508 8.12426 3.02492 9.66661 3.02492 12.2671V21.4181H0V0H3.02492V7.3217Z" fill="white"/>
<path d="M16.3685 11.0431C16.5016 9.21378 16.8597 8.11978 17.6492 7.25445C18.6682 6.12907 20.5731 5.48792 22.8085 5.48792C26.7515 5.48792 28.9869 7.31722 28.9869 10.5275V17.8133C28.9869 19.0328 29.1521 19.2884 29.8407 19.2884C30.1023 19.2884 30.2676 19.257 30.6302 19.127V21.4046C29.9049 21.5661 29.2807 21.6288 28.6564 21.6288C27.2105 21.6288 26.5541 21.0191 26.2879 19.544C24.6767 21.1177 22.9371 21.8216 20.798 21.8216C17.7089 21.8216 15.6066 19.9609 15.6066 17.2304C15.6066 14.7286 17.1856 13.1862 20.4079 12.5406L23.9239 11.8681C25.8289 11.5139 26.2236 11.2269 26.2236 10.2629C26.2236 8.75197 24.8741 7.82386 22.7397 7.82386C21.1928 7.82386 19.9764 8.30361 19.5495 9.14204C19.32 9.55901 19.2557 9.91322 19.1869 11.0341H16.3594L16.3685 11.0431ZM26.2971 13.4508C25.7371 13.6749 25.2138 13.8364 24.4243 14.0291L21.3351 14.7376C19.4944 15.1545 18.6728 15.8943 18.6728 17.1139C18.6728 18.5262 19.8571 19.4902 21.6289 19.4902C24.1948 19.4902 26.2971 17.6609 26.2971 15.446V13.4552V13.4508Z" fill="white"/>
<path d="M35.1377 5.90937V7.67591C36.7167 6.0394 37.9974 5.4924 40.1685 5.4924C42.0413 5.4924 43.5882 6.10217 44.4741 7.19616C45.2315 8.16014 45.5253 9.24965 45.5253 11.0476V21.4181H42.5003V11.2717C42.5003 9.15101 41.5135 8.12427 39.4433 8.12427C36.8453 8.12427 35.2708 9.59937 35.2708 12.0115V21.4181H32.2459V5.90937H35.1377Z" fill="white"/>
<path d="M62.7797 21.4136H59.7547V19.7457C58.2446 21.2208 56.7298 21.8306 54.7239 21.8306C50.4826 21.8306 47.8203 18.6203 47.8203 13.5808C47.8203 8.54123 50.5147 5.48791 54.7239 5.48791C56.762 5.48791 58.2721 6.12906 59.7547 7.57278V0H62.7797V21.4136ZM50.882 13.6436C50.882 17.3022 52.5252 19.3601 55.3849 19.3601C58.2446 19.3601 59.92 17.3066 59.92 13.7422C59.92 10.1777 58.3088 7.96285 55.3849 7.96285C52.461 7.96285 50.882 10.0163 50.882 13.648V13.6436Z" fill="white"/>
<path d="M80.3646 13.7736C80.3646 18.5262 77.2433 21.8306 72.7036 21.8306C68.1639 21.8306 65.0793 18.5217 65.0793 13.6436C65.0793 8.76542 68.1685 5.48792 72.7036 5.48792C77.2387 5.48792 80.3646 8.76093 80.3646 13.7736ZM68.1364 13.6436C68.1364 17.2708 69.8118 19.3601 72.7403 19.3601C75.6689 19.3601 77.3075 17.2753 77.3075 13.7422C77.3075 10.0163 75.6643 7.96286 72.7036 7.96286C69.743 7.96286 68.1364 10.0477 68.1364 13.648V13.6436Z" fill="white"/>
<path d="M85.5239 5.90937V7.67591C87.1029 6.0394 88.3836 5.4924 90.5547 5.4924C92.4275 5.4924 93.9744 6.10217 94.8603 7.19616C95.6177 8.16014 95.9114 9.24965 95.9114 11.0476V21.4181H92.8865V11.2717C92.8865 9.15101 91.8996 8.12427 89.8295 8.12427C87.2314 8.12427 85.657 9.59937 85.657 12.0115V21.4181H82.6321V5.90937H85.5239Z" fill="white"/>
<path d="M98.3718 26.0093L100.024 23.6285C101.801 24.7898 103.439 25.3681 104.936 25.3681C106.317 25.3681 107.405 25.135 108.204 24.6687C109.003 24.2024 109.397 23.624 109.397 22.938C109.397 21.5795 108.392 20.898 106.382 20.898C106.037 20.898 105.418 20.9832 104.518 21.1491C103.618 21.315 102.916 21.4002 102.416 21.4002C99.9784 21.4002 98.7574 20.5034 98.7574 18.7055C98.7574 18.1496 99.042 17.6519 99.6157 17.199C100.19 16.7462 100.896 16.4279 101.741 16.2261C99.322 15.1187 98.1147 13.1952 98.1147 10.4557C98.1147 8.69816 98.739 7.23651 99.9921 6.06629C101.245 4.89608 102.792 4.30873 104.633 4.30873C106.322 4.30873 107.644 4.64948 108.599 5.3265L110.123 3.53755L112.115 5.37134L110.283 6.7209C111.064 7.71177 111.454 9.00753 111.454 10.6082C111.454 12.303 110.912 13.7243 109.833 14.8721C108.755 16.0199 107.336 16.6789 105.578 16.8493L103.058 17.1004C102.76 17.1318 102.356 17.2439 101.856 17.4367C101.351 17.6295 101.103 17.885 101.103 18.1989C101.103 18.6293 101.626 18.84 102.677 18.84C103.136 18.84 103.852 18.7593 104.826 18.5979C105.799 18.4365 106.519 18.3558 106.992 18.3558C108.681 18.3558 110.003 18.7504 110.949 19.5395C111.894 20.3286 112.367 21.4226 112.367 22.8259C112.367 24.3728 111.66 25.6237 110.242 26.5742C108.824 27.5247 107.029 28 104.858 28C103.747 28 102.572 27.8072 101.342 27.4216C100.111 27.036 99.12 26.5653 98.3718 26.0093ZM104.839 6.71193C103.779 6.71193 102.916 7.07959 102.246 7.81041C101.576 8.54124 101.241 9.42899 101.241 10.4737C101.241 11.6439 101.567 12.6123 102.214 13.3835C102.861 14.1502 103.738 14.5358 104.839 14.5358C105.941 14.5358 106.767 14.1637 107.373 13.4149C107.984 12.6661 108.287 11.6887 108.287 10.4737C108.287 9.42899 107.956 8.54124 107.3 7.81041C106.643 7.07959 105.822 6.71193 104.835 6.71193H104.839Z" fill="white"/>
<path d="M125.036 14.3834C125.266 17.5622 126.909 19.3601 129.64 19.3601C131.513 19.3601 132.761 18.4948 133.487 16.661H136.378C135.621 19.9026 133.092 21.8306 129.576 21.8306C125.105 21.8306 122.016 18.4903 122.016 13.6436C122.016 8.7968 125.041 5.48792 129.479 5.48792C132.633 5.48792 134.937 7.12442 135.988 10.1105C136.383 11.2673 136.58 12.5182 136.612 14.3789H125.041L125.036 14.3834ZM133.454 12.2312C133.321 9.40657 131.875 7.83283 129.479 7.83283C127.083 7.83283 125.238 9.63075 125.073 12.2312H133.454Z" fill="white"/>
<path d="M138.71 11.0431C138.843 9.21378 139.201 8.11978 139.991 7.25445C141.01 6.12907 142.915 5.48792 145.15 5.48792C149.093 5.48792 151.329 7.31722 151.329 10.5275V17.8133C151.329 19.0328 151.494 19.2884 152.182 19.2884C152.444 19.2884 152.609 19.257 152.972 19.127V21.4046C152.247 21.5661 151.622 21.6288 150.998 21.6288C149.552 21.6288 148.896 21.0191 148.63 19.544C147.018 21.1177 145.279 21.8216 143.14 21.8216C140.051 21.8216 137.948 19.9609 137.948 17.2304C137.948 14.7286 139.527 13.1862 142.75 12.5406L146.266 11.8681C148.171 11.5139 148.565 11.2269 148.565 10.2629C148.565 8.75197 147.216 7.82386 145.081 7.82386C143.534 7.82386 142.323 8.30361 141.891 9.14204C141.662 9.55901 141.597 9.91322 141.529 11.0341H138.701L138.71 11.0431ZM148.639 13.4508C148.079 13.6749 147.555 13.8364 146.766 14.0291L143.677 14.7376C141.836 15.1545 141.014 15.8943 141.014 17.1139C141.014 18.5262 142.199 19.4902 143.971 19.4902C146.536 19.4902 148.639 17.6609 148.639 15.446V13.4552V13.4508Z" fill="white"/>
<path d="M160.867 8.2498H158.007V17.9792C158.007 18.8759 158.434 19.3915 159.191 19.3915C159.618 19.3915 160.045 19.2974 160.867 18.9745V21.3822C159.554 21.6692 159.058 21.7364 158.338 21.7364C156.07 21.7364 154.987 20.5483 154.987 17.9792V8.2498H152.852V5.90489H154.987V0.995361H158.012V5.90937H160.871V8.25429L160.867 8.2498Z" fill="white"/>
<path d="M171.415 10.6575C170.988 8.72955 169.905 7.92699 167.798 7.92699C165.989 7.92699 164.773 8.66678 164.773 9.75629C164.773 10.5275 165.333 11.0386 166.614 11.3614L170.295 12.294C173.614 13.1279 174.995 14.4775 174.995 16.8538C174.995 19.9026 172.429 21.8306 168.39 21.8306C164.085 21.8306 161.519 19.7771 161.193 16.0826H164.186C164.351 18.1361 165.925 19.3556 168.459 19.3556C170.63 19.3556 172.039 18.4231 172.039 16.9793C172.039 15.9526 171.351 15.4056 169.51 14.9259L166.357 14.1547C164.681 13.7377 163.662 13.2894 163.006 12.711C162.281 12.1012 161.822 11.0745 161.822 10.0477C161.822 7.38447 164.351 5.48792 167.936 5.48792C170.203 5.48792 172.076 6.22771 173.196 7.5414C173.885 8.37534 174.183 9.20929 174.311 10.6575H171.42H171.415Z" fill="white"/>
</g>
<defs>
<clipPath id="clip0_6_3">
<rect width="175" height="28" fill="white"/>
</clipPath>
</defs>
</svg>
